# xmcd
#
# Track frame offsets: 
#        150
#        3808
#        14664
#        18665
#        30055
#        37091
#        46836
#        58540
#        69825
#        80046
#        85783
#        94508
#        105517
#        112039
#        120104
#        127875
#        134195
#        143237
#        150970
#        160466
#        172373
#
# Disc length: 2424 seconds
#
# Revision: 0
# Processed by: cddbd v1.5.2PL0 Copyright (c) Steve Scherf et al.
# Submitted via: ExactAudioCopy v1.0b3
#
DISCID=08097615
DTITLE=Gene Autry - South Of Ther Border
DYEAR=2010
DGENRE=Country
TTITLE0=Gene Autry Spoken Intrduction  (1949)
TTITLE1=South Of The Border  (1949)
TTITLE2=Cielito Lindo  (1938)
TTITLE3=Mexicali Rose  (1941)
TTITLE4=My Adobe Hacienda  (1947)
TTITLE5=In A Little Spanish Town  (1949)
TTITLE6=You Belong To My Heart (Solamente una vez)  (1948)
TTITLE7=Maria Elena  (1954)
TTITLE8=It Happened In Monterey  (1948)
TTITLE9=Come To The Fiesta (& Siley Burnette)  (1939)
TTITLE10=Goodbye Old Mexico  (1941)
TTITLE11=Amapola  (1947)
TTITLE12=Gaucho Serenade  (1940)
TTITLE13=El Rancho Grande  (1950)
TTITLE14=A Gay Ranchero (Las altenitas)  (1947)
TTITLE15=Down Mexico Way (& The Herrera Sisters)  (1941)
TTITLE16=Yours (Quiereme Mucho)  (1946)
TTITLE17=La Golondria (The Swallow)  (1949)
TTITLE18=Marcheta (Love Song Of Old Mexico)  (1946)
TTITLE19=Under Fiesta Stars  (1948)
TTITLE20=In Old Capistrano (Ay, jalisco, no re rajes)  (1942)
EXTD=
EXTT0=
EXTT1=
EXTT2=
EXTT3=
EXTT4=
EXTT5=
EXTT6=
EXTT7=
EXTT8=
EXTT9=
EXTT10=
EXTT11=
EXTT12=
EXTT13=
EXTT14=
EXTT15=
EXTT16=
EXTT17=
EXTT18=
EXTT19=
EXTT20=
PLAYORDER=
